<mxfile host="app.diagrams.net" modified="2021-04-07T20:30:34.339Z" agent="5.0 (Macintosh; Intel Mac OS X 10_15_7) AppleWebKit/605.1.15 (KHTML, like Gecko) Version/14.0 Safari/605.1.15" etag="D2pOcMVfAsRlkX9wucJd" version="14.5.8" type="github">
  <diagram name="Page-1" id="2ca16b54-16f6-2749-3443-fa8db7711227">
    <mxGraphModel dx="1426" dy="842" grid="1" gridSize="10" guides="1" tooltips="1" connect="1" arrows="1" fold="1" page="1" pageScale="1" pageWidth="1100" pageHeight="850" background="#ffffff" math="0" shadow="0">
      <root>
        <mxCell id="0" />
        <mxCell id="1" parent="0" />
        <mxCell id="2ed32ef02a7f4228-18" style="edgeStyle=orthogonalEdgeStyle;html=1;entryX=0.5;entryY=0;labelBackgroundColor=none;startArrow=ERoneToMany;endArrow=ERoneToMany;fontFamily=Verdana;fontSize=12;align=left;startFill=0;" parent="1" source="2ed32ef02a7f4228-2" target="2ed32ef02a7f4228-8" edge="1">
          <mxGeometry relative="1" as="geometry" />
        </mxCell>
        <mxCell id="2ed32ef02a7f4228-20" style="edgeStyle=orthogonalEdgeStyle;html=1;labelBackgroundColor=none;startArrow=ERmandOne;endArrow=ERmandOne;fontFamily=Verdana;fontSize=12;align=left;startFill=0;endFill=0;entryX=1.005;entryY=0.093;entryDx=0;entryDy=0;entryPerimeter=0;exitX=1;exitY=0.5;exitDx=0;exitDy=0;" parent="1" source="2ed32ef02a7f4228-11" target="2ed32ef02a7f4228-10" edge="1">
          <mxGeometry relative="1" as="geometry">
            <Array as="points">
              <mxPoint x="1120" y="125" />
              <mxPoint x="1120" y="262" />
            </Array>
          </mxGeometry>
        </mxCell>
        <mxCell id="2ed32ef02a7f4228-2" value="&lt;div style=&quot;box-sizing: border-box ; width: 100% ; background: #e4e4e4 ; padding: 2px&quot;&gt;all_neighbors_modified&lt;/div&gt;&lt;table style=&quot;width: 100% ; font-size: 1em&quot; cellpadding=&quot;2&quot; cellspacing=&quot;0&quot;&gt;&lt;tbody&gt;&lt;tr&gt;&lt;td&gt;PK&lt;/td&gt;&lt;td&gt;city_name&lt;/td&gt;&lt;/tr&gt;&lt;tr&gt;&lt;td&gt;PK/FK&lt;/td&gt;&lt;td&gt;neighborhood_name&lt;/td&gt;&lt;/tr&gt;&lt;tr&gt;&lt;td&gt;&lt;/td&gt;&lt;td&gt;city_url&lt;/td&gt;&lt;/tr&gt;&lt;tr&gt;&lt;td&gt;&lt;br&gt;&lt;/td&gt;&lt;td&gt;neighborhood_url&lt;br&gt;&lt;/td&gt;&lt;/tr&gt;&lt;tr&gt;&lt;td&gt;&lt;br&gt;&lt;/td&gt;&lt;td&gt;tags&lt;br&gt;&lt;/td&gt;&lt;/tr&gt;&lt;tr&gt;&lt;td&gt;&lt;br&gt;&lt;/td&gt;&lt;td&gt;&lt;br&gt;&lt;/td&gt;&lt;/tr&gt;&lt;/tbody&gt;&lt;/table&gt;" style="verticalAlign=top;align=left;overflow=fill;html=1;rounded=0;shadow=0;comic=0;labelBackgroundColor=none;strokeWidth=1;fontFamily=Verdana;fontSize=12" parent="1" vertex="1">
          <mxGeometry x="390" y="90" width="240" height="130" as="geometry" />
        </mxCell>
        <mxCell id="JFTxTK027irTLMUPLeiy-1" style="edgeStyle=orthogonalEdgeStyle;orthogonalLoop=1;jettySize=auto;html=1;entryX=0;entryY=0.386;entryDx=0;entryDy=0;entryPerimeter=0;endArrow=ERmandOne;endFill=0;exitX=-0.005;exitY=0.275;exitDx=0;exitDy=0;exitPerimeter=0;startArrow=ERoneToMany;startFill=0;rounded=1;" edge="1" parent="1" source="2ed32ef02a7f4228-7" target="2ed32ef02a7f4228-11">
          <mxGeometry relative="1" as="geometry">
            <Array as="points">
              <mxPoint x="80" y="469" />
              <mxPoint x="80" y="30" />
              <mxPoint x="740" y="30" />
              <mxPoint x="740" y="117" />
            </Array>
          </mxGeometry>
        </mxCell>
        <mxCell id="JFTxTK027irTLMUPLeiy-2" style="edgeStyle=orthogonalEdgeStyle;rounded=1;orthogonalLoop=1;jettySize=auto;html=1;entryX=-0.017;entryY=0.13;entryDx=0;entryDy=0;startArrow=ERoneToMany;startFill=0;endArrow=ERmandOne;endFill=0;entryPerimeter=0;exitX=0.995;exitY=0.314;exitDx=0;exitDy=0;exitPerimeter=0;" edge="1" parent="1" source="2ed32ef02a7f4228-7" target="2ed32ef02a7f4228-8">
          <mxGeometry relative="1" as="geometry" />
        </mxCell>
        <mxCell id="2ed32ef02a7f4228-7" value="&lt;div style=&quot;box-sizing: border-box ; width: 100% ; background-color: rgb(228 , 228 , 228) ; padding: 2px&quot;&gt;&lt;font style=&quot;font-size: 12px&quot;&gt;School_info&lt;/font&gt;&lt;/div&gt;&lt;table style=&quot;width: 100%&quot; cellpadding=&quot;2&quot; cellspacing=&quot;0&quot;&gt;&lt;tbody&gt;&lt;tr&gt;&lt;td&gt;&lt;font style=&quot;font-size: 12px&quot;&gt;PK&lt;/font&gt;&lt;/td&gt;&lt;td&gt;&lt;font style=&quot;font-size: 12px&quot;&gt;schoolid&lt;/font&gt;&lt;/td&gt;&lt;/tr&gt;&lt;tr&gt;&lt;td&gt;&lt;font style=&quot;font-size: 12px&quot;&gt;&lt;br&gt;&lt;/font&gt;&lt;/td&gt;&lt;td&gt;&lt;font style=&quot;font-size: 12px&quot;&gt;schoolName&lt;br&gt;&lt;/font&gt;&lt;/td&gt;&lt;/tr&gt;&lt;tr&gt;&lt;td&gt;&lt;/td&gt;&lt;td&gt;&lt;font style=&quot;font-size: 12px&quot;&gt;url&lt;/font&gt;&lt;/td&gt;&lt;/tr&gt;&lt;tr&gt;&lt;td&gt;&lt;font style=&quot;font-size: 12px&quot;&gt;&lt;br&gt;&lt;/font&gt;&lt;/td&gt;&lt;td&gt;&lt;p style=&quot;margin: 0px ; font-stretch: normal ; line-height: normal ; font-family: &amp;#34;helvetica neue&amp;#34;&quot;&gt;&lt;font face=&quot;Verdana&quot; style=&quot;font-size: 12px&quot;&gt;street_address&lt;/font&gt;&lt;/p&gt;&lt;/td&gt;&lt;/tr&gt;&lt;tr&gt;&lt;td&gt;&lt;font style=&quot;font-size: 12px&quot;&gt;FK1&lt;br&gt;FK2&lt;br&gt;&lt;br&gt;&lt;br&gt;&lt;br&gt;&lt;br&gt;&lt;br&gt;&lt;br&gt;&lt;br&gt;&lt;br&gt;&lt;br&gt;&lt;br&gt;&lt;br&gt;&lt;br&gt;&lt;br&gt;&lt;br&gt;&lt;br&gt;&lt;br&gt;&lt;br&gt;&lt;br&gt;&lt;br&gt;&lt;/font&gt;&lt;/td&gt;&lt;td&gt;&lt;font style=&quot;font-size: 12px&quot;&gt;city&lt;br&gt;zip&lt;br&gt;lowGrade&lt;br&gt;highGrade&lt;br&gt;schoolLevel&lt;br&gt;&lt;p style=&quot;margin: 0px ; font-stretch: normal ; line-height: normal&quot;&gt;isCharterSchool&lt;/p&gt;&lt;p style=&quot;margin: 0px ; font-stretch: normal ; line-height: normal&quot;&gt;isMagnetSchool&lt;/p&gt;&lt;p style=&quot;margin: 0px ; font-stretch: normal ; line-height: normal&quot;&gt;isTitleISchool&lt;/p&gt;&lt;p style=&quot;margin: 0px ; font-stretch: normal ; line-height: normal&quot;&gt;districtName&lt;/p&gt;&lt;p style=&quot;margin: 0px ; font-stretch: normal ; line-height: normal&quot;&gt;countyName&lt;/p&gt;&lt;p style=&quot;margin: 0px ; font-stretch: normal ; line-height: normal&quot;&gt;rank&lt;/p&gt;&lt;p style=&quot;margin: 0px ; font-stretch: normal ; line-height: normal&quot;&gt;rankOf&lt;/p&gt;&lt;p style=&quot;margin: 0px ; font-stretch: normal ; line-height: normal&quot;&gt;rankStars&lt;/p&gt;&lt;p style=&quot;margin: 0px ; font-stretch: normal ; line-height: normal&quot;&gt;rankLevel&lt;/p&gt;&lt;p style=&quot;margin: 0px ; font-stretch: normal ; line-height: normal&quot;&gt;rankStatewidePercentage&lt;/p&gt;&lt;p style=&quot;margin: 0px ; font-stretch: normal ; line-height: normal&quot;&gt;rankMovement&lt;/p&gt;&lt;p style=&quot;margin: 0px ; font-stretch: normal ; line-height: normal&quot;&gt;teachersFulltime&lt;/p&gt;&lt;p style=&quot;margin: 0px ; font-stretch: normal ; line-height: normal&quot;&gt;isPrivate&lt;/p&gt;&lt;p style=&quot;margin: 0px ; font-stretch: normal ; line-height: normal&quot;&gt;&lt;br&gt;&lt;/p&gt;&lt;p style=&quot;margin: 0px ; font-stretch: normal ; line-height: normal&quot;&gt;&lt;br&gt;&lt;/p&gt;&lt;/font&gt;&lt;/td&gt;&lt;/tr&gt;&lt;/tbody&gt;&lt;/table&gt;" style="verticalAlign=top;align=left;overflow=fill;html=1;rounded=0;shadow=0;comic=0;labelBackgroundColor=none;strokeWidth=1;fontFamily=Verdana;fontSize=12" parent="1" vertex="1">
          <mxGeometry x="100" y="370" width="210" height="360" as="geometry" />
        </mxCell>
        <mxCell id="afN1NmVHiFLyJXuhLZQ1-3" style="edgeStyle=orthogonalEdgeStyle;orthogonalLoop=1;jettySize=auto;html=1;startArrow=ERoneToMany;startFill=0;endArrow=ERmandOne;endFill=0;rounded=1;entryX=-0.003;entryY=0.08;entryDx=0;entryDy=0;entryPerimeter=0;" parent="1" source="2ed32ef02a7f4228-8" target="2ed32ef02a7f4228-10" edge="1">
          <mxGeometry relative="1" as="geometry">
            <mxPoint x="690" y="250" as="targetPoint" />
            <Array as="points">
              <mxPoint x="630" y="465" />
              <mxPoint x="630" y="255" />
            </Array>
          </mxGeometry>
        </mxCell>
        <mxCell id="2ed32ef02a7f4228-8" value="&lt;div style=&quot;box-sizing: border-box ; width: 100% ; background: #e4e4e4 ; padding: 2px&quot;&gt;House_info&lt;/div&gt;&lt;table style=&quot;width: 100% ; font-size: 1em&quot; cellpadding=&quot;2&quot; cellspacing=&quot;0&quot;&gt;&lt;tbody&gt;&lt;tr&gt;&lt;td&gt;PK&lt;/td&gt;&lt;td&gt;uniqueId&lt;/td&gt;&lt;/tr&gt;&lt;tr&gt;&lt;td&gt;FK1&lt;/td&gt;&lt;td&gt;foreignKey&lt;/td&gt;&lt;/tr&gt;&lt;tr&gt;&lt;td&gt;&lt;/td&gt;&lt;td&gt;fieldname&lt;/td&gt;&lt;/tr&gt;&lt;tr&gt;&lt;td&gt;FK1&lt;br&gt;&lt;/td&gt;&lt;td&gt;foreignKey&lt;br&gt;&lt;/td&gt;&lt;/tr&gt;&lt;tr&gt;&lt;td&gt;FK1&lt;br&gt;&lt;/td&gt;&lt;td&gt;foreignKey&lt;br&gt;&lt;/td&gt;&lt;/tr&gt;&lt;tr&gt;&lt;td&gt;FK1&lt;br&gt;&lt;/td&gt;&lt;td&gt;foreignKey&lt;br&gt;&lt;/td&gt;&lt;/tr&gt;&lt;tr&gt;&lt;td&gt;FK1&lt;br&gt;&lt;/td&gt;&lt;td&gt;foreignKey&lt;br&gt;&lt;/td&gt;&lt;/tr&gt;&lt;tr&gt;&lt;td&gt;FK1&lt;br&gt;&lt;/td&gt;&lt;td&gt;foreignKey&lt;br&gt;&lt;/td&gt;&lt;/tr&gt;&lt;tr&gt;&lt;td&gt;FK1&lt;br&gt;&lt;/td&gt;&lt;td&gt;foreignKey&lt;br&gt;&lt;/td&gt;&lt;/tr&gt;&lt;tr&gt;&lt;td&gt;FK1&lt;br&gt;&lt;/td&gt;&lt;td&gt;foreignKey&lt;br&gt;&lt;/td&gt;&lt;/tr&gt;&lt;tr&gt;&lt;td&gt;FK1&lt;br&gt;&lt;/td&gt;&lt;td&gt;foreignKey&lt;br&gt;&lt;/td&gt;&lt;/tr&gt;&lt;tr&gt;&lt;td&gt;&lt;br&gt;&lt;/td&gt;&lt;td&gt;fieldname&lt;br&gt;&lt;/td&gt;&lt;/tr&gt;&lt;tr&gt;&lt;td&gt;&lt;br&gt;&lt;/td&gt;&lt;td&gt;fieldname&lt;br&gt;&lt;/td&gt;&lt;/tr&gt;&lt;tr&gt;&lt;td&gt;FK1&lt;br&gt;&lt;/td&gt;&lt;td&gt;foreignKey&lt;br&gt;&lt;/td&gt;&lt;/tr&gt;&lt;tr&gt;&lt;td&gt;&lt;br&gt;&lt;/td&gt;&lt;td&gt;fieldname&lt;br&gt;&lt;/td&gt;&lt;/tr&gt;&lt;tr&gt;&lt;td&gt;&lt;br&gt;&lt;/td&gt;&lt;td&gt;fieldname&lt;br&gt;&lt;/td&gt;&lt;/tr&gt;&lt;tr&gt;&lt;td&gt;FK1&lt;br&gt;&lt;/td&gt;&lt;td&gt;foreignKey&lt;br&gt;&lt;/td&gt;&lt;/tr&gt;&lt;/tbody&gt;&lt;/table&gt;" style="verticalAlign=top;align=left;overflow=fill;html=1;rounded=0;shadow=0;comic=0;labelBackgroundColor=none;strokeWidth=1;fontFamily=Verdana;fontSize=12" parent="1" vertex="1">
          <mxGeometry x="420" y="300" width="180" height="330" as="geometry" />
        </mxCell>
        <mxCell id="2ed32ef02a7f4228-10" value="&lt;div style=&quot;box-sizing: border-box ; width: 100% ; background: #e4e4e4 ; padding: 2px&quot;&gt;Geographic&lt;/div&gt;&lt;table style=&quot;width: 100%&quot; cellpadding=&quot;2&quot; cellspacing=&quot;0&quot;&gt;&lt;tbody&gt;&lt;tr&gt;&lt;td&gt;PK&lt;/td&gt;&lt;td&gt;zipcode&lt;/td&gt;&lt;/tr&gt;&lt;tr&gt;&lt;td&gt;FK1&lt;/td&gt;&lt;td&gt;city&lt;/td&gt;&lt;/tr&gt;&lt;tr&gt;&lt;td&gt;&lt;/td&gt;&lt;td&gt;county_name&lt;br&gt;&lt;/td&gt;&lt;/tr&gt;&lt;tr&gt;&lt;td&gt;&lt;br&gt;&lt;/td&gt;&lt;td&gt;population&lt;/td&gt;&lt;/tr&gt;&lt;tr&gt;&lt;td&gt;&lt;br&gt;&lt;/td&gt;&lt;td&gt;population_rank&lt;br&gt;&lt;/td&gt;&lt;/tr&gt;&lt;tr&gt;&lt;td&gt;&lt;br&gt;&lt;/td&gt;&lt;td&gt;city_name&lt;/td&gt;&lt;/tr&gt;&lt;tr&gt;&lt;td&gt;&lt;br&gt;&lt;/td&gt;&lt;td&gt;aland&lt;/td&gt;&lt;/tr&gt;&lt;tr&gt;&lt;td&gt;&lt;br&gt;&lt;/td&gt;&lt;td&gt;&lt;p style=&quot;margin: 0px ; font-stretch: normal ; line-height: normal&quot;&gt;&lt;font style=&quot;font-size: 12px&quot;&gt;median_household_income&lt;/font&gt;&lt;/p&gt;&lt;/td&gt;&lt;/tr&gt;&lt;tr&gt;&lt;td&gt;&lt;br&gt;&lt;/td&gt;&lt;td&gt;&lt;p style=&quot;margin: 0px ; font-stretch: normal ; line-height: normal&quot;&gt;&lt;font style=&quot;font-size: 12px&quot;&gt;average_household_income&lt;/font&gt;&lt;/p&gt;&lt;/td&gt;&lt;/tr&gt;&lt;tr&gt;&lt;td&gt;&lt;br&gt;&lt;/td&gt;&lt;td&gt;&lt;p style=&quot;margin: 0px&quot;&gt;&lt;font color=&quot;#000000&quot; style=&quot;font-stretch: normal ; line-height: normal ; font-size: 12px&quot;&gt;per_capita_income&lt;/font&gt;&lt;/p&gt;&lt;/td&gt;&lt;/tr&gt;&lt;tr&gt;&lt;td&gt;&lt;font style=&quot;font-size: 12px&quot;&gt;&lt;br&gt;&lt;/font&gt;&lt;/td&gt;&lt;td&gt;&lt;p style=&quot;margin: 0px&quot;&gt;&lt;font color=&quot;#000000&quot; style=&quot;font-stretch: normal ; line-height: normal ; font-size: 12px&quot;&gt;percent_of_households_with_incomes_200000_or_more&lt;/font&gt;&lt;/p&gt;&lt;/td&gt;&lt;/tr&gt;&lt;tr&gt;&lt;td&gt;&lt;font style=&quot;font-size: 12px&quot;&gt;&lt;br&gt;&lt;/font&gt;&lt;/td&gt;&lt;td&gt;&lt;p style=&quot;margin: 0px ; font-stretch: normal ; line-height: normal&quot;&gt;&lt;font style=&quot;font-size: 12px&quot;&gt;householder_under_25_years&lt;/font&gt;&lt;/p&gt;&lt;p style=&quot;margin: 0px ; font-stretch: normal ; line-height: normal&quot;&gt;&lt;font style=&quot;font-size: 12px&quot;&gt;householder_25_to_44_years&lt;/font&gt;&lt;/p&gt;&lt;p style=&quot;margin: 0px&quot;&gt;&lt;font color=&quot;#000000&quot; style=&quot;font-stretch: normal ; line-height: normal ; font-size: 12px&quot;&gt;householder_45_to_64_years&lt;/font&gt;&lt;/p&gt;&lt;p style=&quot;margin: 0px&quot;&gt;&lt;font color=&quot;#000000&quot; style=&quot;font-stretch: normal ; line-height: normal ; font-size: 12px&quot;&gt;&lt;/font&gt;&lt;/p&gt;&lt;p style=&quot;margin: 0px&quot;&gt;&lt;font color=&quot;#000000&quot; style=&quot;font-stretch: normal ; line-height: normal ; font-size: 12px&quot;&gt;householder_65_years_and_over&lt;/font&gt;&lt;/p&gt;&lt;p style=&quot;margin: 0px&quot;&gt;&lt;font color=&quot;#000000&quot; style=&quot;font-stretch: normal ; line-height: normal ; font-size: 12px&quot;&gt;&lt;/font&gt;&lt;/p&gt;&lt;p style=&quot;margin: 0px&quot;&gt;&lt;font color=&quot;#000000&quot; style=&quot;font-stretch: normal ; line-height: normal ; font-size: 12px&quot;&gt;hhi_total&lt;/font&gt;&lt;/p&gt;&lt;p style=&quot;margin: 0px&quot;&gt;&lt;font color=&quot;#000000&quot; style=&quot;font-stretch: normal ; line-height: normal ; font-size: 12px&quot;&gt;&lt;/font&gt;&lt;/p&gt;&lt;p style=&quot;margin: 0px&quot;&gt;&lt;font color=&quot;#000000&quot; style=&quot;font-stretch: normal ; line-height: normal ; font-size: 12px&quot;&gt;hhi_lt_25k&lt;/font&gt;&lt;/p&gt;&lt;p style=&quot;margin: 0px&quot;&gt;&lt;font color=&quot;#000000&quot; style=&quot;font-stretch: normal ; line-height: normal ; font-size: 12px&quot;&gt;&lt;/font&gt;&lt;/p&gt;&lt;p style=&quot;margin: 0px&quot;&gt;&lt;font color=&quot;#000000&quot; style=&quot;font-stretch: normal ; line-height: normal ; font-size: 12px&quot;&gt;hhi_25k_to_49k&lt;/font&gt;&lt;/p&gt;&lt;p style=&quot;margin: 0px&quot;&gt;&lt;font color=&quot;#000000&quot; style=&quot;font-stretch: normal ; line-height: normal ; font-size: 12px&quot;&gt;&lt;/font&gt;&lt;/p&gt;&lt;p style=&quot;margin: 0px&quot;&gt;&lt;font color=&quot;#000000&quot; style=&quot;font-stretch: normal ; line-height: normal ; font-size: 12px&quot;&gt;hhi_50k_to_749k&lt;/font&gt;&lt;/p&gt;&lt;p style=&quot;margin: 0px&quot;&gt;&lt;font color=&quot;#000000&quot; style=&quot;font-stretch: normal ; line-height: normal ; font-size: 12px&quot;&gt;&lt;/font&gt;&lt;/p&gt;&lt;p style=&quot;margin: 0px&quot;&gt;&lt;font color=&quot;#000000&quot; style=&quot;font-stretch: normal ; line-height: normal ; font-size: 12px&quot;&gt;hhi_75k_to_999k&lt;/font&gt;&lt;/p&gt;&lt;p style=&quot;margin: 0px&quot;&gt;&lt;font color=&quot;#000000&quot; style=&quot;font-stretch: normal ; line-height: normal ; font-size: 12px&quot;&gt;&lt;/font&gt;&lt;/p&gt;&lt;p style=&quot;margin: 0px&quot;&gt;&lt;font color=&quot;#000000&quot; style=&quot;font-stretch: normal ; line-height: normal ; font-size: 12px&quot;&gt;hhi_100k_to_1490k&lt;/font&gt;&lt;/p&gt;&lt;p style=&quot;margin: 0px&quot;&gt;&lt;font color=&quot;#000000&quot; style=&quot;font-stretch: normal ; line-height: normal ; font-size: 12px&quot;&gt;&lt;/font&gt;&lt;/p&gt;&lt;p style=&quot;margin: 0px&quot;&gt;&lt;font color=&quot;#000000&quot; style=&quot;font-stretch: normal ; line-height: normal ; font-size: 12px&quot;&gt;hhi_150k_to_1999k&lt;/font&gt;&lt;/p&gt;&lt;p style=&quot;margin: 0px&quot;&gt;&lt;font color=&quot;#000000&quot; style=&quot;font-stretch: normal ; line-height: normal ; font-size: 12px&quot;&gt;&lt;/font&gt;&lt;/p&gt;&lt;p style=&quot;margin: 0px&quot;&gt;&lt;font color=&quot;#000000&quot; style=&quot;font-stretch: normal ; line-height: normal ; font-size: 12px&quot;&gt;hhi_200k_or_more&lt;/font&gt;&lt;/p&gt;&lt;p style=&quot;margin: 0px&quot;&gt;&lt;font color=&quot;#000000&quot; style=&quot;font-stretch: normal ; line-height: normal ; font-size: 12px&quot;&gt;&lt;/font&gt;&lt;/p&gt;&lt;p style=&quot;margin: 0px&quot;&gt;&lt;font color=&quot;#000000&quot; style=&quot;font-stretch: normal ; line-height: normal ; font-size: 12px&quot;&gt;race_and_ethnicity_total&lt;/font&gt;&lt;/p&gt;&lt;p style=&quot;margin: 0px&quot;&gt;&lt;font color=&quot;#000000&quot; style=&quot;font-stretch: normal ; line-height: normal ; font-size: 12px&quot;&gt;&lt;/font&gt;&lt;/p&gt;&lt;p style=&quot;margin: 0px&quot;&gt;&lt;font color=&quot;#000000&quot; style=&quot;font-stretch: normal ; line-height: normal ; font-size: 12px&quot;&gt;population_density_sq_mi&lt;/font&gt;&lt;/p&gt;&lt;p style=&quot;margin: 0px&quot;&gt;&lt;font color=&quot;#000000&quot; style=&quot;font-stretch: normal ; line-height: normal ; font-size: 12px&quot;&gt;&lt;/font&gt;&lt;/p&gt;&lt;p style=&quot;margin: 0px&quot;&gt;&lt;font color=&quot;#000000&quot; style=&quot;font-stretch: normal ; line-height: normal ; font-size: 12px&quot;&gt;median_age&lt;/font&gt;&lt;/p&gt;&lt;p style=&quot;margin: 0px&quot;&gt;&lt;font color=&quot;#000000&quot; style=&quot;font-stretch: normal ; line-height: normal ; font-size: 12px&quot;&gt;&lt;/font&gt;&lt;/p&gt;&lt;p style=&quot;margin: 0px&quot;&gt;&lt;font color=&quot;#000000&quot; style=&quot;font-stretch: normal ; line-height: normal ; font-size: 12px&quot;&gt;educational_attainment_bachelors&lt;/font&gt;&lt;/p&gt;&lt;p style=&quot;margin: 0px&quot;&gt;&lt;font color=&quot;#000000&quot; style=&quot;font-stretch: normal ; line-height: normal ; font-size: 12px&quot;&gt;&lt;/font&gt;&lt;/p&gt;&lt;p style=&quot;margin: 0px&quot;&gt;&lt;font color=&quot;#000000&quot; style=&quot;font-stretch: normal ; line-height: normal ; font-size: 12px&quot;&gt;educational_attainment_graduate&lt;/font&gt;&lt;/p&gt;&lt;p style=&quot;margin: 0px&quot;&gt;&lt;font color=&quot;#000000&quot; style=&quot;font-stretch: normal ; line-height: normal ; font-size: 12px&quot;&gt;&lt;/font&gt;&lt;/p&gt;&lt;p style=&quot;margin: 0px&quot;&gt;&lt;font color=&quot;#000000&quot; style=&quot;font-stretch: normal ; line-height: normal ; font-size: 12px&quot;&gt;family_poverty_pct&lt;/font&gt;&lt;/p&gt;&lt;p style=&quot;margin: 0px&quot;&gt;&lt;font color=&quot;#000000&quot; style=&quot;font-stretch: normal ; line-height: normal ; font-size: 12px&quot;&gt;&lt;/font&gt;&lt;/p&gt;&lt;p style=&quot;margin: 0px&quot;&gt;&lt;font color=&quot;#000000&quot; style=&quot;font-stretch: normal ; line-height: normal ; font-size: 12px&quot;&gt;unemployment_pct&lt;/font&gt;&lt;/p&gt;&lt;p style=&quot;margin: 0px&quot;&gt;&lt;font color=&quot;#000000&quot; style=&quot;font-stretch: normal ; line-height: normal ; font-size: 12px&quot;&gt;&lt;/font&gt;&lt;/p&gt;&lt;p style=&quot;margin: 0px&quot;&gt;&lt;font color=&quot;#000000&quot; style=&quot;font-stretch: normal ; line-height: normal ; font-size: 12px&quot;&gt;housing_units&lt;/font&gt;&lt;/p&gt;&lt;p style=&quot;margin: 0px&quot;&gt;&lt;font color=&quot;#000000&quot; style=&quot;font-stretch: normal ; line-height: normal ; font-size: 12px&quot;&gt;&lt;/font&gt;&lt;/p&gt;&lt;p style=&quot;margin: 0px&quot;&gt;&lt;font color=&quot;#000000&quot; style=&quot;font-stretch: normal ; line-height: normal ; font-size: 12px&quot;&gt;median_value_of_owner_occupied_units&lt;/font&gt;&lt;/p&gt;&lt;/td&gt;&lt;/tr&gt;&lt;/tbody&gt;&lt;/table&gt;" style="verticalAlign=top;align=left;overflow=fill;html=1;rounded=0;shadow=0;comic=0;labelBackgroundColor=none;strokeWidth=1;fontFamily=Verdana;fontSize=12" parent="1" vertex="1">
          <mxGeometry x="690" y="210" width="380" height="560" as="geometry" />
        </mxCell>
        <mxCell id="2ed32ef02a7f4228-11" value="&lt;div style=&quot;box-sizing: border-box ; width: 100% ; background: #e4e4e4 ; padding: 2px&quot;&gt;top_150_cities&lt;/div&gt;&lt;table style=&quot;width: 100% ; font-size: 1em&quot; cellpadding=&quot;2&quot; cellspacing=&quot;0&quot;&gt;&lt;tbody&gt;&lt;tr&gt;&lt;td&gt;PK&lt;/td&gt;&lt;td&gt;City&lt;br&gt;&lt;/td&gt;&lt;/tr&gt;&lt;tr&gt;&lt;td&gt;&lt;br&gt;&lt;/td&gt;&lt;td&gt;Population&lt;br&gt;Rank&lt;/td&gt;&lt;/tr&gt;&lt;/tbody&gt;&lt;/table&gt;" style="verticalAlign=top;align=left;overflow=fill;html=1;rounded=0;shadow=0;comic=0;labelBackgroundColor=none;strokeWidth=1;fontFamily=Verdana;fontSize=12" parent="1" vertex="1">
          <mxGeometry x="830" y="90" width="180" height="70" as="geometry" />
        </mxCell>
      </root>
    </mxGraphModel>
  </diagram>
</mxfile>